<svg width="1100" height="540" viewBox="0 0 1100 540" fill="none" xmlns="http://www.w3.org/2000/svg">
  <rect x="8" y="8" width="1084" height="524" rx="22" fill="#04000D" stroke="#594277" stroke-width="3"/>
  <rect x="10" y="10" width="1080" height="520" rx="20" fill="url(#bg)"/>
  <rect x="10" y="10" width="1080" height="520" rx="20" stroke="url(#frame)" stroke-width="2"/>
  <rect x="34" y="32" width="70" height="476" rx="14" fill="#080411"/>
  <path d="M58 56H80M58 64H74" stroke="#A79BC1" stroke-width="3" stroke-linecap="round"/>
  <rect x="54" y="112" width="30" height="30" rx="7" fill="#6D35FF"/>
  <rect x="54" y="164" width="30" height="30" rx="7" fill="#A531FF"/>
  <rect x="54" y="216" width="30" height="30" rx="7" fill="#E329B8"/>
  <rect x="54" y="334" width="30" height="30" rx="7" fill="#0C0715" stroke="#2A203A"/>
  <path d="M154 48H218M262 48H356M402 48H474" stroke="#C8C0DA" stroke-width="7" stroke-linecap="round"/>
  <path d="M154 109H210" stroke="#824CFF" stroke-width="4" stroke-linecap="round"/>
  <text x="154" y="154" fill="#F5F0FF" font-family="Inter, Arial" font-size="28" font-weight="700">Vaultflow</text>
  <circle cx="330" cy="144" r="21" fill="#10091D" stroke="#35264D" stroke-width="2"/>
  <path d="M330 134V154M320 144H340" stroke="#AFA5C8" stroke-width="3" stroke-linecap="round"/>
  <text x="154" y="204" fill="#F5F0FF" font-family="Inter, Arial" font-size="19" font-weight="600">Total visits</text>
  <text x="154" y="256" fill="#625676" font-family="Inter, Arial" font-size="16">26M</text>
  <text x="154" y="326" fill="#625676" font-family="Inter, Arial" font-size="16">22M</text>
  <text x="154" y="396" fill="#625676" font-family="Inter, Arial" font-size="16">18M</text>
  <text x="154" y="466" fill="#625676" font-family="Inter, Arial" font-size="16">14M</text>
  <path d="M210 256H954M210 326H954M210 396H954M210 466H954" stroke="#1D142B" stroke-width="2"/>
  <path d="M212 430C265 401 317 373 376 391C428 407 456 325 506 306C553 289 584 350 633 337C694 321 712 220 771 249C820 273 822 349 877 363C918 373 940 330 984 336C1013 340 1037 360 1060 350" stroke="url(#purpleLine)" stroke-width="7" stroke-linecap="round"/>
  <path d="M212 368C274 337 320 405 383 368C443 333 453 263 512 271C562 278 568 375 633 386C702 398 726 283 787 305C849 328 844 419 906 420C961 421 1002 387 1060 399" stroke="#5C5369" stroke-width="5" stroke-linecap="round" opacity=".72"/>
  <path d="M498 306V466" stroke="#7E4FFF" stroke-width="2" stroke-dasharray="5 8"/>
  <circle cx="498" cy="306" r="9" fill="#180C2B" stroke="#EEE8FF" stroke-width="4"/>
  <rect x="424" y="190" width="152" height="82" rx="13" fill="#111017" stroke="#4B3A33" stroke-width="2"/>
  <text x="446" y="220" fill="#AFA5C8" font-family="Inter, Arial" font-size="11">This Month</text>
  <text x="446" y="246" fill="#F4F0FF" font-family="Inter, Arial" font-size="25" font-weight="800">20,342,952</text>
  <text x="446" y="264" fill="#AFA5C8" font-family="Inter, Arial" font-size="12">May, 2023</text>
  <text x="780" y="91" fill="#F4F0FF" font-family="Inter, Arial" font-size="12">Active Users</text>
  <rect x="780" y="112" width="120" height="7" rx="4" fill="#27173D"/>
  <rect x="780" y="112" width="74" height="7" rx="4" fill="#D72AD7"/>
  <rect x="780" y="136" width="150" height="7" rx="4" fill="#27173D"/>
  <rect x="780" y="136" width="64" height="7" rx="4" fill="#8B5CFF"/>
  <rect x="780" y="160" width="134" height="7" rx="4" fill="#27173D"/>
  <rect x="780" y="160" width="98" height="7" rx="4" fill="#9C6DFF"/>
  <circle cx="988" cy="126" r="43" fill="#120A21" stroke="#6B2EFF" stroke-width="10"/>
  <path d="M988 83A43 43 0 0 1 1027 144" stroke="#D736B7" stroke-width="10" stroke-linecap="round"/>
  <text x="963" y="134" fill="#F8F4FF" font-family="Inter, Arial" font-size="18" font-weight="800">4,912</text>
  <rect x="878" y="204" width="82" height="28" rx="4" fill="#181123" stroke="#4D3D62"/>
  <text x="893" y="223" fill="#D8D0EB" font-family="Inter, Arial" font-size="12">May 2023</text>
  <rect x="974" y="204" width="28" height="28" rx="4" fill="#181123" stroke="#4D3D62"/>
  <defs>
    <linearGradient id="bg" x1="551" y1="10" x2="551" y2="532" gradientUnits="userSpaceOnUse">
      <stop stop-color="#0B0614"/>
      <stop offset="1" stop-color="#04000D"/>
    </linearGradient>
    <linearGradient id="frame" x1="550" y1="10" x2="550" y2="532" gradientUnits="userSpaceOnUse">
      <stop stop-color="#76569F"/>
      <stop offset=".55" stop-color="#21152F"/>
      <stop offset="1" stop-color="#5C3E86"/>
    </linearGradient>
    <linearGradient id="purpleLine" x1="212" y1="340" x2="1060" y2="340" gradientUnits="userSpaceOnUse">
      <stop stop-color="#782EFF"/>
      <stop offset=".42" stop-color="#9E47FF"/>
      <stop offset=".62" stop-color="#6923FF"/>
      <stop offset="1" stop-color="#7C3DFF"/>
    </linearGradient>
  </defs>
</svg>
